<svg width="119" height="119" viewBox="0 0 119 119" fill="none" xmlns="http://www.w3.org/2000/svg">
<g filter="url(#filter0_d_156_368)">
<circle cx="59.5" cy="57" r="50" fill="#212121"/>
<circle cx="59.5" cy="57" r="49.6875" stroke="#F6F6F6" stroke-width="0.625"/>
</g>
<g clip-path="url(#clip0_156_368)">
<path d="M83.8555 39.4023C83.8555 40.0388 84.3713 40.5547 85.0078 40.5547H86.1602C86.7966 40.5547 87.3125 40.0388 87.3125 39.4023C87.3125 38.7659 86.7966 38.25 86.1602 38.25H85.0078C84.3713 38.25 83.8555 38.7659 83.8555 39.4023Z" fill="white"/>
<path d="M50.4375 75.125H56.0354L54.4057 73.4953C53.9735 73.0631 53.3873 72.8203 52.7761 72.8203H50.4375C41.5276 72.8203 34.3047 65.5974 34.3047 56.6875C34.3047 47.7776 41.5276 40.5547 50.4375 40.5547H68.875C77.7849 40.5547 85.0078 47.7776 85.0078 56.6875C85.0078 65.5974 77.7849 72.8203 68.875 72.8203H61.9779C61.061 72.8203 60.1817 72.4561 59.5334 71.8078L57.6242 69.8985C56.5436 68.818 55.078 68.2109 53.5499 68.2109H50.4375C44.0732 68.2109 38.9141 63.0518 38.9141 56.6875C38.9141 50.3232 44.0732 45.1641 50.4375 45.1641H68.875C75.2393 45.1641 80.3984 50.3232 80.3984 56.6875C80.3984 63.0518 75.2393 68.2109 68.875 68.2109H64.4464C63.5295 68.2109 62.6502 67.8467 62.0019 67.1984L60.0926 65.2891C59.012 64.2086 57.5465 63.6016 56.0184 63.6016H50.4375C46.619 63.6016 43.5234 60.506 43.5234 56.6875C43.5234 52.869 46.619 49.7734 50.4375 49.7734H68.875C72.6935 49.7734 75.7891 52.869 75.7891 56.6875C75.7891 60.4594 72.7685 63.526 69.0144 63.6002L69.0136 63.6016H67.3273C66.4104 63.6016 65.5311 63.2373 64.8827 62.5891L62.9734 60.6798C62.0869 59.7931 60.9411 59.2253 59.7141 59.0501L59.6562 58.9922H50.4375C49.1647 58.9922 48.1328 57.9603 48.1328 56.6875C48.1328 55.4147 49.1647 54.3828 50.4375 54.3828H68.875C70.1478 54.3828 71.1797 55.4147 71.1797 56.6875C71.1797 57.9603 70.1478 58.9922 68.875 58.9922H64.2656L65.8953 60.6219C66.3275 61.0541 66.9137 61.2969 67.5249 61.2969H68.875C71.4207 61.2969 73.4844 59.2332 73.4844 56.6875C73.4844 54.1418 71.4207 52.0781 68.875 52.0781H50.4375C47.8918 52.0781 45.8281 54.1418 45.8281 56.6875C45.8281 59.2332 47.8918 61.2969 50.4375 61.2969H58.8993C59.8162 61.2969 60.6955 61.6611 61.3438 62.3094L63.2531 64.2187C64.3337 65.2992 65.7992 65.9062 67.3273 65.9062H69.4512V65.8885C74.2741 65.5912 78.0938 61.5853 78.0938 56.6875C78.0938 51.5962 73.9663 47.4688 68.875 47.4688H50.4375C45.3462 47.4688 41.2188 51.5962 41.2188 56.6875C41.2188 61.7789 45.3462 65.9062 50.4375 65.9062H56.0184C56.9353 65.9062 57.8146 66.2705 58.463 66.9187L60.3723 68.828C61.4528 69.9086 62.9183 70.5156 64.4464 70.5156H68.875C76.5121 70.5156 82.7031 64.3246 82.7031 56.6875C82.7031 49.0504 76.5121 42.8594 68.875 42.8594H50.4375C42.8004 42.8594 36.6094 49.0504 36.6094 56.6875C36.6094 64.3246 42.8004 70.5156 50.4375 70.5156H53.5499C54.4668 70.5156 55.3461 70.8799 55.9945 71.5281L57.9038 73.4374C58.9843 74.5179 60.4498 75.125 61.9779 75.125H68.875C79.0578 75.125 87.3125 66.8703 87.3125 56.6875C87.3125 46.5047 79.0578 38.25 68.875 38.25L50.4375 38.25C40.2547 38.25 32 46.5048 32 56.6875C32 66.8703 40.2548 75.125 50.4375 75.125Z" fill="white"/>
</g>
<defs>
<filter id="filter0_d_156_368" x="0.750001" y="0.750001" width="117.5" height="117.5" filterUnits="userSpaceOnUse" color-interpolation-filters="sRGB">
<feFlood flood-opacity="0" result="BackgroundImageFix"/>
<feColorMatrix in="SourceAlpha" type="matrix" values="0 0 0 0 0 0 0 0 0 0 0 0 0 0 0 0 0 0 127 0" result="hardAlpha"/>
<feOffset dy="2.5"/>
<feGaussianBlur stdDeviation="4.375"/>
<feComposite in2="hardAlpha" operator="out"/>
<feColorMatrix type="matrix" values="0 0 0 0 0.130142 0 0 0 0 0.0541782 0 0 0 0 0.336165 0 0 0 0.04 0"/>
<feBlend mode="normal" in2="BackgroundImageFix" result="effect1_dropShadow_156_368"/>
<feBlend mode="normal" in="SourceGraphic" in2="effect1_dropShadow_156_368" result="shape"/>
</filter>
<clipPath id="clip0_156_368">
<rect width="55.3125" height="36.875" fill="white" transform="translate(32 38.25)"/>
</clipPath>
</defs>
</svg>
